<svg width="24" height="15" viewBox="0 0 24 15" fill="none" xmlns="http://www.w3.org/2000/svg">
<path fill-rule="evenodd" clip-rule="evenodd" d="M23.5714 1.07143C23.5714 0.479695 23.0917 0 22.5 0H1.07143L0.946477 0.00720828C0.413614 0.0690995 0 0.521962 0 1.07143C0 1.66316 0.479695 2.14286 1.07143 2.14286H22.5L22.625 2.13565C23.1578 2.07376 23.5714 1.6209 23.5714 1.07143ZM22.5 6.42857C23.0917 6.42857 23.5714 6.90826 23.5714 7.49999C23.5714 8.04946 23.1578 8.50232 22.625 8.56421L22.5 8.57142H1.07143C0.479695 8.57142 0 8.09173 0 7.49999C0 6.95053 0.413614 6.49767 0.946477 6.43577L1.07143 6.42857H22.5ZM22.5 12.8571C23.0917 12.8571 23.5714 13.3368 23.5714 13.9286C23.5714 14.478 23.1578 14.9309 22.625 14.9928L22.5 15H1.07143C0.479695 15 0 14.5203 0 13.9286C0 13.3791 0.413614 12.9262 0.946477 12.8643L1.07143 12.8571H22.5Z" fill="#FF7900"/>
</svg>
