<svg width="12" height="12" viewBox="0 0 12 12" fill="none" xmlns="http://www.w3.org/2000/svg">
<path fill-rule="evenodd" clip-rule="evenodd" d="M0.95815 0.206655L3.65598 0.00301401C4.20433 -0.0383786 4.69327 0.35105 4.76686 0.895401L5.0877 3.2689C5.13111 3.59 5.02006 3.91217 4.78866 4.1396L3.7777 5.13263L6.97965 8.2795L8.0176 7.25913C8.20624 7.07373 8.4579 6.96795 8.72035 6.96044L8.81917 6.96227L11.0287 7.1073C11.5779 7.14336 12.0066 7.59838 12.001 8.14826L11.9714 11.0022C11.9674 11.3812 11.6938 11.7017 11.3222 11.77C7.86316 12.4051 4.75582 11.7449 2.51219 9.53972C0.259663 7.32582 -0.41797 4.24618 0.239185 0.8445C0.306992 0.493503 0.602662 0.23349 0.95815 0.206655ZM4.00234 3.38194L3.69256 1.09351L1.26832 1.27675L1.23506 1.47745C0.786546 4.30172 1.37449 6.79714 3.14195 8.62588L3.27672 8.76178C5.14416 10.5972 7.72735 11.2146 10.6796 10.7715L10.8829 10.7386L10.9096 8.19223L8.76681 8.05152L7.71228 9.08856C7.32904 9.46523 6.72434 9.48616 6.3165 9.15134L6.24665 9.08856L2.96819 5.86632C2.55715 5.46233 2.55715 4.80336 2.96819 4.39937L4.00234 3.38194Z" fill="#696160"/>
</svg>
