<svg width="285" height="262" viewBox="0 0 285 262" fill="none" xmlns="http://www.w3.org/2000/svg">
<g opacity="0.9">
<path d="M180.825 89.2472C179.32 92.105 175.711 93.16 172.757 91.6035L141.305 75.0526C138.357 73.499 137.186 69.9264 138.686 67.0685L139.747 65.0591C141.246 62.2048 144.855 61.1504 147.808 62.7012L179.26 79.2549C182.214 80.8093 183.384 84.384 181.879 87.2374L180.825 89.2472ZM189.308 69.7872L150.537 49.3783C135.504 41.469 116.901 47.2393 108.983 62.2749L50.3675 173.642C42.4523 188.681 48.2274 207.284 63.2628 215.199L102.037 235.605C117.071 243.522 135.677 237.747 143.588 222.711L202.208 111.34C210.122 96.3064 204.35 77.7024 189.308 69.7872Z" fill="url(#paint0_linear)"/>
<path d="M155.169 41.1789C153.472 45.3744 152.477 48.824 152.456 53.0977C154.217 53.2292 156.19 54.2248 157.926 53.9691C157.926 53.9691 158.182 53.9604 158.311 53.949C158.338 50.392 158.993 46.7841 160.403 43.2899C166.425 28.3725 183.463 21.1451 198.374 27.1705C213.288 33.1951 220.52 50.2276 214.498 65.1408C212.372 70.3984 208.861 74.6715 204.574 77.7689L201.963 85.8136C209.761 82.2387 216.273 75.8203 219.733 67.2579C226.924 49.4572 218.288 29.1263 200.489 21.937C182.688 14.7403 162.358 23.3784 155.169 41.1789Z" fill="url(#paint1_linear)"/>
<path d="M180.826 89.2469C179.321 92.1048 175.712 93.1597 172.758 91.6032L141.306 75.0524C138.358 73.4987 137.187 69.9261 138.687 67.0683L139.747 65.0588C141.247 62.2046 144.856 61.1501 147.809 62.7009L179.261 79.2547C182.215 80.8091 183.384 84.3837 181.88 87.2372L180.826 89.2469ZM202.117 82.5127C199.318 77.2634 194.975 72.7662 189.309 69.7869L150.538 49.378C135.505 41.4687 116.901 47.2391 108.984 62.2746L50.3685 173.642C47.3895 179.305 46.3507 185.469 47.0179 191.379C49.8162 196.628 54.1577 201.122 59.8189 204.102L98.5962 224.51C113.632 232.422 132.23 226.653 140.146 211.614L198.764 100.243C201.743 94.5838 202.782 88.4196 202.117 82.5127Z" fill="url(#paint2_linear)"/>
<path d="M113.342 118.584C109.539 116.584 108.075 111.868 110.073 108.067L117.888 93.2195C119.888 89.4217 124.608 87.9528 128.41 89.9538L170.482 112.099C174.282 114.099 175.744 118.819 173.745 122.618L165.927 137.47C163.929 141.268 159.215 142.728 155.412 140.731L113.342 118.584Z" fill="url(#paint3_linear)"/>
<path d="M163.99 136.444C162.551 139.176 159.166 140.23 156.44 138.791L114.363 116.644C111.626 115.204 110.579 111.822 112.016 109.092L119.83 94.2402C121.271 91.5031 124.655 90.4592 127.389 91.8962L169.463 114.04C172.197 115.479 173.245 118.86 171.804 121.597L163.99 136.444Z" fill="url(#paint4_linear)"/>
<path d="M143.681 111.392L139.912 118.542L145.353 118.331L147.879 119.661L149.161 117.23L146.462 115.81L143.681 111.392ZM137.665 119.962L143.573 108.732L147.398 114.797L150.959 116.671L148.436 121.456L145.048 119.673L137.665 119.962Z" fill="#FF7900"/>
<path d="M136.55 119.458C133.467 117.834 132.275 114.005 133.899 110.92C135.525 107.836 139.351 106.647 142.434 108.271C142.765 108.443 142.885 108.845 142.717 109.171C142.546 109.494 142.143 109.622 141.815 109.45C139.384 108.17 136.359 109.105 135.079 111.54C133.792 113.975 134.734 117 137.168 118.282C137.493 118.452 137.621 118.855 137.45 119.185C137.278 119.506 136.874 119.63 136.55 119.458Z" fill="#FF7900"/>
<path d="M137.714 117.255C135.845 116.268 135.129 113.947 136.115 112.083C137.097 110.214 139.411 109.497 141.278 110.477C141.603 110.651 141.73 111.048 141.554 111.377C141.388 111.703 140.985 111.827 140.654 111.656C139.442 111.016 137.931 111.484 137.289 112.701C136.648 113.918 137.12 115.433 138.334 116.072C138.66 116.242 138.788 116.645 138.612 116.97C138.442 117.294 138.037 117.421 137.714 117.255Z" fill="#FF7900"/>
<path d="M94.7006 153.608C90.9048 151.609 89.4406 146.89 91.44 143.092L99.256 128.241C101.256 124.443 105.975 122.977 109.775 124.979L151.848 147.123C155.646 149.122 157.112 153.841 155.11 157.639L147.293 172.489C145.295 176.287 140.576 177.753 136.775 175.753L94.7006 153.608Z" fill="url(#paint5_linear)"/>
<path d="M145.352 171.47C143.913 174.203 140.528 175.251 137.795 173.812L95.7252 151.667C92.9921 150.226 91.9414 146.847 93.3784 144.113L101.196 129.263C102.633 126.53 106.017 125.481 108.753 126.921L150.826 149.062C153.558 150.501 154.607 153.886 153.168 156.619L145.352 171.47Z" fill="url(#paint6_linear)"/>
<path d="M115.771 154.234L124.68 158.921L128.603 151.466L119.696 146.782L115.771 154.234ZM125.279 160.854L113.84 154.832L119.093 144.851L130.533 150.871L125.279 160.854Z" fill="#FF7900"/>
<path d="M127.752 150.901C127.405 150.712 127.27 150.282 127.455 149.931L128.793 147.387C129.526 145.991 128.988 144.253 127.591 143.517L127.057 143.239C125.664 142.503 123.923 143.04 123.19 144.441L121.848 146.983C121.663 147.332 121.233 147.466 120.884 147.28C120.532 147.096 120.398 146.667 120.584 146.315L121.922 143.773C123.027 141.676 125.632 140.868 127.724 141.971L128.254 142.25C130.357 143.356 131.164 145.961 130.06 148.054L128.721 150.599C128.534 150.948 128.102 151.08 127.752 150.901Z" fill="#FF7900"/>
<path d="M121.3 156.318C121.16 156.587 120.824 156.692 120.557 156.551C120.285 156.406 120.185 156.074 120.327 155.81L122.511 151.653C122.655 151.384 122.985 151.277 123.255 151.422C123.521 151.565 123.626 151.894 123.484 152.165L121.3 156.318Z" fill="#FF7900"/>
<path d="M76.1395 188.877C72.3394 186.875 70.8754 182.159 72.875 178.362L80.6906 163.511C82.6884 159.713 87.4075 158.246 91.2058 160.246L133.28 182.39C137.081 184.39 138.542 189.108 136.547 192.908L128.727 207.761C126.729 211.559 122.012 213.021 118.212 211.021L76.1395 188.877Z" fill="url(#paint7_linear)"/>
<path d="M126.789 206.737C125.349 209.468 121.965 210.519 119.234 209.081L77.1613 186.938C74.4281 185.501 73.3777 182.111 74.8145 179.382L82.6326 164.532C84.0675 161.799 87.4542 160.746 90.1872 162.187L132.262 184.331C134.993 185.77 136.04 189.153 134.604 191.888L126.789 206.737Z" fill="url(#paint8_linear)"/>
<path d="M97.2092 189.502L106.117 194.19L110.036 186.736L101.136 182.051L97.2092 189.502ZM106.716 196.123L95.2757 190.101L100.534 180.117L111.969 186.137L106.716 196.123Z" fill="#858585"/>
<path d="M109.121 185.895C108.87 185.585 108.934 185.137 109.24 184.89L111.503 183.124C112.746 182.146 112.97 180.34 111.993 179.099L111.627 178.624C110.65 177.383 108.844 177.159 107.599 178.129L105.336 179.901C105.024 180.151 104.576 180.091 104.335 179.78C104.088 179.47 104.146 179.022 104.456 178.779L106.72 177.004C108.584 175.544 111.285 175.877 112.756 177.74L113.12 178.213C114.581 180.081 114.256 182.786 112.383 184.241L110.122 186.016C109.812 186.263 109.359 186.204 109.121 185.895Z" fill="#858585"/>
<path d="M102.738 191.581C102.594 191.852 102.262 191.956 101.997 191.817C101.722 191.675 101.623 191.341 101.766 191.072L103.95 186.92C104.09 186.649 104.419 186.544 104.695 186.689C104.964 186.828 105.065 187.161 104.922 187.432L102.738 191.581Z" fill="#858585"/>
<path d="M180.823 89.2479C179.319 92.1057 175.71 93.1607 172.756 91.6042L141.303 75.0533C138.355 73.4997 137.184 69.9271 138.684 67.0692L139.745 65.0597C141.244 62.2055 144.854 61.1511 147.806 62.7019L179.258 79.2556C182.212 80.81 183.382 84.3847 181.877 87.2381L180.823 89.2479ZM184.16 78.6688L145.518 58.3305C141.893 56.4184 137.413 57.8102 135.504 61.4358L134.16 63.9873C132.252 67.6106 133.643 72.0974 137.269 74.001L175.912 94.3392C179.535 96.2508 184.019 94.8578 185.923 91.2319L187.267 88.6799C189.173 85.0586 187.788 80.5721 184.16 78.6688Z" fill="url(#paint9_linear)"/>
<path d="M181.479 19.0605C168.303 20.263 156.368 28.9255 151.724 42.2087C150.922 44.4946 150.379 46.8092 150.071 49.1236L155.491 51.9784C155.647 49.341 156.138 46.6852 157.052 44.0723C160.801 33.3566 170.214 26.2362 180.763 24.8213C180.872 23.6064 181.034 22.3962 181.221 21.1879C181.266 20.4714 181.359 19.7645 181.479 19.0605Z" fill="url(#paint10_linear)"/>
<path d="M181.77 17.5219C177.42 17.8644 173.062 19.0164 168.926 21.0934C157.798 26.6823 151.008 37.4771 149.933 49.0508L155.419 51.9386C155.53 41.3617 161.381 31.2028 171.462 26.1374C174.524 24.5984 177.733 23.6892 180.957 23.293C181.036 22.5882 181.122 21.8849 181.22 21.1858C181.306 19.946 181.516 18.7311 181.77 17.5219Z" fill="url(#paint11_linear)"/>
<path d="M181.344 20.0244C168.614 21.2709 157.104 29.6686 152.614 42.5165C151.794 44.8587 151.266 47.2309 150.979 49.6012L154.592 51.5027C154.779 48.9189 155.274 46.3212 156.166 43.7629C160.064 32.6156 169.896 25.241 180.886 23.8594C180.978 22.9674 181.09 22.0755 181.222 21.1878C181.248 20.7987 181.296 20.4106 181.344 20.0244Z" fill="url(#paint12_linear)"/>
<path d="M180.721 25.2955C180.827 24.0208 180.995 22.7525 181.185 21.4835C170.928 22.4024 161.201 27.9137 155.368 37.3221C152.988 41.1615 151.495 45.2959 150.785 49.4961L154.326 51.3599C154.846 47.2052 156.221 43.095 158.568 39.3062C163.599 31.1851 171.896 26.3224 180.721 25.2955Z" fill="url(#paint13_linear)"/>
<path d="M202.296 25.04C198.414 22.7136 194.247 21.2667 190.028 20.5837C189.625 22.3027 189.226 22.7199 189.21 24.4744C189.264 23.3751 189.326 23.9646 189.265 24.9739C192.775 25.5518 197.021 27.4413 200.254 29.3766C214.058 37.6374 217.703 56.0965 209.44 69.8941C201.177 83.694 183.229 88.1992 169.43 79.9381C164.565 77.0236 160.887 72.8925 158.492 68.1776L150.949 64.3511C153.272 72.6089 158.604 80.0367 166.527 84.7824C182.998 94.645 204.421 89.2642 214.282 72.7946C224.151 56.3236 218.768 34.9005 202.296 25.04Z" fill="url(#paint14_linear)"/>
<path d="M201.816 25.8506C198.018 23.5755 193.954 22.1666 189.831 21.5028C189.557 22.7347 189.35 23.9729 189.284 25.2244C192.929 25.8159 196.525 27.0663 199.879 29.074C214.127 37.6035 218.775 56.1337 210.245 70.3782C201.715 84.6227 183.191 89.2764 168.945 80.7417C163.547 77.5082 159.572 72.82 157.132 67.489L152.129 64.952C154.504 72.6383 159.575 79.5203 167.01 83.9734C183.037 93.5689 203.881 88.3397 213.473 72.3133C223.072 56.2874 217.838 35.4407 201.816 25.8506Z" fill="url(#paint15_linear)"/>
<path d="M217.853 64.4305C223.915 46.215 214.025 26.4636 195.806 20.4054C194.006 19.8047 192.185 19.4071 190.367 19.117C189.944 20.9574 189.501 22.7953 189.338 24.6594C190.901 24.9021 192.47 25.2455 194.023 25.7628C209.289 30.8387 217.571 47.3882 212.492 62.6502C207.414 77.9133 190.866 86.1992 175.604 81.1173C169.003 78.921 163.757 74.5514 160.293 69.0917L152.005 64.8894C155.443 74.7259 163.191 82.9392 173.822 86.4751C192.039 92.5363 211.788 82.6487 217.853 64.4305Z" fill="url(#paint16_linear)"/>
<path d="M216.958 64.1333C222.858 46.4111 213.233 27.1928 195.515 21.2958C193.741 20.7048 191.947 20.3128 190.156 20.0312C189.866 21.2564 189.6 22.4825 189.425 23.7176C191.064 23.9702 192.702 24.3259 194.327 24.8663C210.082 30.1113 218.629 47.192 213.387 62.9469C208.146 78.7013 191.064 87.2527 175.31 82.0103C167.97 79.5666 162.239 74.5316 158.693 68.2786L153.228 65.5074C156.727 74.6628 164.113 82.2513 174.121 85.581C191.844 91.4789 211.062 81.857 216.958 64.1333Z" fill="url(#paint17_linear)"/>
<path d="M124.134 152.642C123.786 153.297 122.972 153.549 122.32 153.205C121.662 152.857 121.409 152.043 121.755 151.392C122.099 150.732 122.912 150.481 123.57 150.827C124.223 151.173 124.48 151.986 124.134 152.642Z" fill="#FF7900"/>
<path d="M105.571 187.907C105.223 188.564 104.409 188.818 103.756 188.473C103.097 188.125 102.845 187.316 103.187 186.656C103.54 186.002 104.348 185.745 105.009 186.092C105.662 186.44 105.915 187.254 105.571 187.907Z" fill="#858585"/>
<path d="M183.368 24.0773C199.537 23.4171 213.293 35.9987 214.028 52.131C214.761 68.2633 202.207 81.923 186.031 82.5876C175.687 83.013 166.367 77.9952 160.775 70.1178C160.296 71.1313 159.51 72.0311 158.823 72.862C158.435 73.3343 158.006 73.8483 157.542 74.317L157.54 74.3196C157.465 74.3978 157.388 74.4758 157.312 74.5539C157.258 74.6017 157.201 74.6347 157.149 74.6799L157.121 74.7052C163.876 83.3329 174.537 88.731 186.289 88.2489C205.59 87.4597 220.58 71.1515 219.703 51.8961C218.827 32.6428 202.409 17.624 183.111 18.4147C163.809 19.2042 148.819 35.5137 149.695 54.7678C149.799 57.043 150.476 57.8666 151 59.9999L155.379 52.9082C155.533 37.4978 167.746 24.7163 183.368 24.0773Z" fill="url(#paint18_linear)"/>
<path d="M155.788 52.1384C155.028 35.486 166.633 23.8204 183.323 23.1369C200.016 22.4505 214.214 35.4401 214.972 52.0917C215.731 68.7444 202.767 82.8482 186.076 83.5322C175.561 83.9645 166.06 78.9507 160.261 71.0337C159.824 71.6853 159.297 72.2912 158.824 72.8633C158.508 73.2453 158.165 73.6518 157.802 74.043C164.371 82.4882 174.774 87.7787 186.248 87.3083C205.029 86.5355 219.61 70.6729 218.756 51.9379C217.904 33.2057 201.931 18.5923 183.15 19.3626C164.372 20.1292 149.791 35.9959 150.643 54.7309C150.727 56.5792 150.99 58.3758 151.369 60.1283L154.432 54.616L154.428 54.576" fill="url(#paint19_linear)"/>
<path d="M144.374 56.7812L148.498 48.5026L149.999 49.1003L153.495 50.9603L158.45 53.5469L154.231 61.6648L144.374 56.7812Z" fill="#12100E"/>
</g>
<defs>
<linearGradient id="paint0_linear" x1="137.505" y1="7.47577" x2="128.911" y2="110.929" gradientUnits="userSpaceOnUse">
<stop stop-color="#646970"/>
<stop offset="1" stop-color="#12100E"/>
</linearGradient>
<linearGradient id="paint1_linear" x1="174.413" y1="86.5005" x2="200.491" y2="21.9368" gradientUnits="userSpaceOnUse">
<stop stop-color="#595A5D"/>
<stop offset="0.462366" stop-color="#E4E4E3"/>
<stop offset="0.741936" stop-color="white"/>
<stop offset="1" stop-color="#595A5D"/>
</linearGradient>
<linearGradient id="paint2_linear" x1="11.9896" y1="127.592" x2="108.439" y2="135.604" gradientUnits="userSpaceOnUse">
<stop stop-color="#646970"/>
<stop offset="1" stop-color="#12100E"/>
</linearGradient>
<linearGradient id="paint3_linear" x1="158.328" y1="160.952" x2="133.939" y2="93.1991" gradientUnits="userSpaceOnUse">
<stop stop-color="#646970"/>
<stop offset="1" stop-color="#12100E"/>
</linearGradient>
<linearGradient id="paint4_linear" x1="151.19" y1="81.2645" x2="141.592" y2="116.51" gradientUnits="userSpaceOnUse">
<stop stop-color="#646970"/>
<stop offset="1" stop-color="#291F1E"/>
</linearGradient>
<linearGradient id="paint5_linear" x1="139.693" y1="195.973" x2="115.305" y2="128.223" gradientUnits="userSpaceOnUse">
<stop stop-color="#646970"/>
<stop offset="1" stop-color="#12100E"/>
</linearGradient>
<linearGradient id="paint6_linear" x1="132.553" y1="116.289" x2="122.956" y2="151.534" gradientUnits="userSpaceOnUse">
<stop stop-color="#646970"/>
<stop offset="1" stop-color="#291F1E"/>
</linearGradient>
<linearGradient id="paint7_linear" x1="121.128" y1="231.243" x2="96.7392" y2="163.49" gradientUnits="userSpaceOnUse">
<stop stop-color="#646970"/>
<stop offset="1" stop-color="#12100E"/>
</linearGradient>
<linearGradient id="paint8_linear" x1="113.989" y1="151.556" x2="104.391" y2="186.802" gradientUnits="userSpaceOnUse">
<stop stop-color="#646970"/>
<stop offset="1" stop-color="#291F1E"/>
</linearGradient>
<linearGradient id="paint9_linear" x1="157.745" y1="112.074" x2="162.023" y2="60.5807" gradientUnits="userSpaceOnUse">
<stop stop-color="#646970"/>
<stop offset="1" stop-color="#12100E"/>
</linearGradient>
<linearGradient id="paint10_linear" x1="155.636" y1="31.0253" x2="221.357" y2="54.0148" gradientUnits="userSpaceOnUse">
<stop stop-color="#595A5D"/>
<stop offset="0.462366" stop-color="#E4E4E3"/>
<stop offset="0.741936" stop-color="white"/>
<stop offset="1" stop-color="#595A5D"/>
</linearGradient>
<linearGradient id="paint11_linear" x1="142.642" y1="46.3277" x2="204.862" y2="15.0715" gradientUnits="userSpaceOnUse">
<stop stop-color="#595A5D"/>
<stop offset="0.462366" stop-color="#E4E4E3"/>
<stop offset="0.741936" stop-color="white"/>
<stop offset="1" stop-color="#595A5D"/>
</linearGradient>
<linearGradient id="paint12_linear" x1="201.155" y1="87.0702" x2="165.626" y2="34.0127" gradientUnits="userSpaceOnUse">
<stop stop-color="#595A5D"/>
<stop offset="0.462366" stop-color="#E4E4E3"/>
<stop offset="0.741936" stop-color="white"/>
<stop offset="1" stop-color="#595A5D"/>
</linearGradient>
<linearGradient id="paint13_linear" x1="188.463" y1="93.1291" x2="165.267" y2="33.6485" gradientUnits="userSpaceOnUse">
<stop stop-color="#595A5D"/>
<stop offset="0.462366" stop-color="#E4E4E3"/>
<stop offset="0.741936" stop-color="white"/>
<stop offset="1" stop-color="#595A5D"/>
</linearGradient>
<linearGradient id="paint14_linear" x1="154.54" y1="37.0276" x2="214.282" y2="72.7959" gradientUnits="userSpaceOnUse">
<stop stop-color="#595A5D"/>
<stop offset="0.462366" stop-color="#E4E4E3"/>
<stop offset="0.741936" stop-color="white"/>
<stop offset="1" stop-color="#595A5D"/>
</linearGradient>
<linearGradient id="paint15_linear" x1="198.375" y1="89.104" x2="174.275" y2="29.9841" gradientUnits="userSpaceOnUse">
<stop stop-color="#595A5D"/>
<stop offset="0.462366" stop-color="#E4E4E3"/>
<stop offset="0.741936" stop-color="white"/>
<stop offset="1" stop-color="#595A5D"/>
</linearGradient>
<linearGradient id="paint16_linear" x1="151.782" y1="42.4479" x2="217.852" y2="64.4344" gradientUnits="userSpaceOnUse">
<stop stop-color="#595A5D"/>
<stop offset="0.462366" stop-color="#E4E4E3"/>
<stop offset="0.741936" stop-color="white"/>
<stop offset="1" stop-color="#595A5D"/>
</linearGradient>
<linearGradient id="paint17_linear" x1="205.846" y1="83.8018" x2="169.517" y2="31.3004" gradientUnits="userSpaceOnUse">
<stop stop-color="#595A5D"/>
<stop offset="0.462366" stop-color="#E4E4E3"/>
<stop offset="0.741936" stop-color="white"/>
<stop offset="1" stop-color="#595A5D"/>
</linearGradient>
<linearGradient id="paint18_linear" x1="219.703" y1="51.8953" x2="149.709" y2="55.0859" gradientUnits="userSpaceOnUse">
<stop stop-color="#595A5D"/>
<stop offset="0.462366" stop-color="#E4E4E3"/>
<stop offset="0.741936" stop-color="white"/>
<stop offset="1" stop-color="#595A5D"/>
</linearGradient>
<linearGradient id="paint19_linear" x1="154.002" y1="32.2977" x2="207.045" y2="68.6966" gradientUnits="userSpaceOnUse">
<stop stop-color="#595A5D"/>
<stop offset="0.462366" stop-color="#E4E4E3"/>
<stop offset="0.741936" stop-color="white"/>
<stop offset="1" stop-color="#595A5D"/>
</linearGradient>
</defs>
</svg>
