<svg width="17" height="17" viewBox="0 0 17 17" fill="none" xmlns="http://www.w3.org/2000/svg">
<path fill-rule="evenodd" clip-rule="evenodd" d="M8.36455 0.8C4.18676 0.8 0.8 4.18676 0.8 8.36455C0.8 12.5423 4.18676 15.9291 8.36455 15.9291C12.5423 15.9291 15.9291 12.5423 15.9291 8.36455C15.9291 4.18676 12.5423 0.8 8.36455 0.8ZM0 8.36455C0 3.74494 3.74494 0 8.36455 0C12.9842 0 16.7291 3.74494 16.7291 8.36455C16.7291 12.9842 12.9842 16.7291 8.36455 16.7291C3.74494 16.7291 0 12.9842 0 8.36455Z" fill="#FF7900"/>
<path d="M12.3508 6.15108C12.5223 5.96247 12.8142 5.94857 13.0028 6.12003C13.1769 6.27831 13.2021 6.5392 13.0701 6.72675L13.0338 6.77201L8.41843 11.8489C8.24839 12.036 7.96311 12.0493 7.7766 11.889L7.73541 11.8489L3.12003 6.77201C2.94857 6.58339 2.96247 6.2915 3.15108 6.12003C3.32518 5.96176 3.58729 5.96142 3.76145 6.11066L3.80305 6.15108L8.07692 10.8526L12.3508 6.15108Z" fill="#FF7900"/>
</svg>
