<svg width="12" height="22" viewBox="0 0 12 22" fill="none" xmlns="http://www.w3.org/2000/svg">
<path fill-rule="evenodd" clip-rule="evenodd" d="M7.16194 1.05357C7.29608 0.973733 7.47594 0.983892 7.60079 1.07836L10.6182 3.36155C10.9116 3.58355 10.9608 3.96568 10.7302 4.23205L8.67013 7.07447H6.45444C6.05525 7.07143 5.58837 7.07143 5.58492 7.55776L5.58492 13.5085C5.58837 14.0137 6.05525 14.0137 6.45444 14.0168H8.67013L10.8171 16.5438C11.072 16.7997 11.059 17.1828 10.7875 17.4169L7.78872 20.0023C7.66648 20.1077 7.47511 20.121 7.33187 20.0341C3.75812 17.8644 1.04165 15.6029 1.00047 10.5029C0.959298 5.40288 3.6192 3.16221 7.16194 1.05357Z" stroke="#291F1E" stroke-width="2" stroke-linecap="round" stroke-linejoin="round"/>
</svg>
