<svg width="15" height="16" viewBox="0 0 15 16" fill="none" xmlns="http://www.w3.org/2000/svg">
<path fill-rule="evenodd" clip-rule="evenodd" d="M7.5 13.9325C3.94982 13.9325 1.07143 11.0541 1.07143 7.50391C1.07143 3.95373 3.94982 1.07533 7.5 1.07533C11.0502 1.07533 13.9286 3.95373 13.9286 7.50391C13.9286 11.0541 11.0502 13.9325 7.5 13.9325ZM7.5 0.00390625C3.35786 0.00390625 0 3.36176 0 7.50391C0 11.6461 3.35786 15.0039 7.5 15.0039C11.6421 15.0039 15 11.6461 15 7.50391C15 3.36176 11.6421 0.00390625 7.5 0.00390625Z" fill="#FF7900"/>
<path fill-rule="evenodd" clip-rule="evenodd" d="M5.89258 7.50405H6.96401V11.7898H8.03544V6.43262H5.89258V7.50405Z" fill="#FF7900"/>
<path fill-rule="evenodd" clip-rule="evenodd" d="M7.50014 3.21826C8.09157 3.21826 8.57157 3.69826 8.57157 4.28969C8.57157 4.88112 8.09157 5.36112 7.50014 5.36112C6.90871 5.36112 6.42871 4.88112 6.42871 4.28969C6.42871 3.69826 6.90871 3.21826 7.50014 3.21826Z" fill="#FF7900"/>
</svg>
