<svg width="14" height="14" viewBox="0 0 14 14" fill="none" xmlns="http://www.w3.org/2000/svg">
<path d="M7 0C7.32635 0 7.59532 0.245662 7.63208 0.56215L7.63636 0.636364V6.36364H13.3636C13.7151 6.36364 14 6.64855 14 7C14 7.32635 13.7543 7.59532 13.4378 7.63208L13.3636 7.63636H7.63636V13.3636C7.63636 13.7151 7.35145 14 7 14C6.67365 14 6.40468 13.7543 6.36792 13.4378L6.36364 13.3636V7.63636H0.636364C0.28491 7.63636 0 7.35145 0 7C0 6.67365 0.245662 6.40468 0.56215 6.36792L0.636364 6.36364H6.36364V0.636364C6.36364 0.28491 6.64855 0 7 0Z" fill="#696160"/>
</svg>
