<svg width="13" height="16" viewBox="0 0 13 16" fill="none" xmlns="http://www.w3.org/2000/svg">
<path fill-rule="evenodd" clip-rule="evenodd" d="M11.9999 5.36105C11.9999 11.8432 7.34487 13.6378 6.49987 13.9325C5.65487 13.6378 0.999871 11.8432 0.999871 5.36105V3.06819L6.49987 1.10212L11.9999 3.06819V5.36105ZM6.5 0.00390625L0 2.29676V5.36105C0 13.1878 6.315 14.9718 6.38 15.0039H6.5L6.62 14.9718C6.685 14.9718 13 13.1718 13 5.32891V2.29676L6.5 0.00390625Z" fill="#FF7900"/>
<path fill-rule="evenodd" clip-rule="evenodd" d="M4.29496 6.96819L3.58496 7.72355L4.72996 8.95034C4.91796 9.15284 5.17346 9.26641 5.43996 9.26641C5.70496 9.26534 5.95846 9.15123 6.14496 8.95034L9.41497 5.45212L8.70497 4.69141L5.43996 8.19498L4.29496 6.96819Z" fill="#FF7900"/>
</svg>
