<svg width="15" height="16" viewBox="0 0 15 16" fill="none" xmlns="http://www.w3.org/2000/svg">
<path fill-rule="evenodd" clip-rule="evenodd" d="M7.49999 13.9325C3.94982 13.9325 1.07143 11.0541 1.07143 7.50391C1.07143 3.95373 3.94982 1.07533 7.49999 1.07533C11.0502 1.07533 13.9285 3.95373 13.9285 7.50391C13.9285 11.0541 11.0502 13.9325 7.49999 13.9325ZM7.5 0.00390625C3.35786 0.00390625 0 3.36176 0 7.50391C0 11.6461 3.35786 15.0039 7.5 15.0039C11.6421 15.0039 15 11.6461 15 7.50391C15 3.36176 11.6421 0.00390625 7.5 0.00390625Z" fill="#FF7900"/>
<path fill-rule="evenodd" clip-rule="evenodd" d="M8.03578 2.68262H6.96436V7.2469C6.96436 7.57208 7.11221 7.87958 7.36614 8.08262L9.84649 10.0648L10.5108 9.22905L8.03578 7.2469V2.68262Z" fill="#FF7900"/>
</svg>
