<svg width="108" height="31" viewBox="0 0 108 31" fill="none" xmlns="http://www.w3.org/2000/svg">
<path d="M37.2106 24.4471C36.9525 24.4471 36.7324 24.2218 36.7324 23.938C36.7324 23.6625 36.9525 23.4204 37.2106 23.4204C37.4686 23.4204 37.6887 23.6625 37.6887 23.938C37.6887 24.2218 37.4762 24.4471 37.2106 24.4471ZM36.8387 30.883V25.5323H37.59V30.883H36.8387Z" fill="#941914"/>
<path d="M41.9236 30.883V27.2686C41.9236 26.5507 41.5289 26.0999 40.7396 26.0999C40.3146 26.0999 39.9351 26.1917 39.6999 26.2919V30.8913H38.9409V25.8078C39.4115 25.5907 40.0186 25.4321 40.7244 25.4321C42.0071 25.4321 42.6673 26.0916 42.6673 27.2101V30.8913H41.9236V30.883Z" fill="#941914"/>
<path d="M45.1568 30.9915C44.6332 30.9915 44.064 30.8246 43.7148 30.6159L43.9881 29.9815C44.2461 30.1484 44.7622 30.3154 45.1492 30.3154C45.7716 30.3154 46.189 29.9815 46.189 29.4556C46.189 28.888 45.7716 28.6709 45.2024 28.4455C44.5193 28.1701 43.8363 27.8278 43.8363 26.8679C43.8363 26.0331 44.4207 25.4321 45.4528 25.4321C46.0069 25.4321 46.485 25.5907 46.8037 25.8078L46.5457 26.3921C46.318 26.2335 45.9082 26.0749 45.5287 26.0749C44.9443 26.0749 44.6104 26.4255 44.6104 26.8679C44.6104 27.4355 45.005 27.6358 45.5515 27.8529C46.2725 28.1534 46.9783 28.4622 46.9783 29.4639C46.9707 30.3738 46.3028 30.9915 45.1568 30.9915Z" fill="#941914"/>
<path d="M49.9537 30.9914C48.747 30.9914 48.0791 30.4071 48.0791 29.1133V25.5322H48.838V29.13C48.838 29.923 49.2099 30.2986 49.9537 30.2986C50.3939 30.2986 50.7961 30.2068 50.9858 30.1233V25.5406H51.7372V30.6242C51.3653 30.8245 50.6671 30.9914 49.9537 30.9914Z" fill="#941914"/>
<path d="M55.1597 26.1584C55.0307 26.125 54.8789 26.1167 54.7271 26.1167C54.3931 26.1167 54.0288 26.1751 53.8088 26.2836V30.883H53.0498V25.7995C53.49 25.5824 54.1579 25.4238 54.8257 25.4238C55.0079 25.4238 55.1673 25.4405 55.3039 25.4656L55.1597 26.1584Z" fill="#941914"/>
<path d="M57.9064 30.9916C56.5707 30.9916 55.9028 30.3655 55.9028 29.3555C55.9028 27.8279 57.3979 27.5942 58.8703 27.5107V27.1017C58.8703 26.3087 58.3922 26.0582 57.7167 26.0582C57.2689 26.0582 56.7073 26.2168 56.3886 26.3838L56.1912 25.7995C56.5631 25.6075 57.1779 25.4238 57.7774 25.4238C58.8703 25.4238 59.5837 25.8996 59.5837 27.1684V30.6159C59.2422 30.8246 58.544 30.9916 57.9064 30.9916ZM58.8703 28.0867C57.785 28.1534 56.6162 28.2286 56.6162 29.3388C56.6162 29.9648 57.0412 30.3738 57.8913 30.3738C58.2631 30.3738 58.7033 30.2904 58.8779 30.2069V28.0867H58.8703Z" fill="#941914"/>
<path d="M63.8791 30.883V27.2686C63.8791 26.5507 63.4845 26.0999 62.6952 26.0999C62.2702 26.0999 61.8907 26.1917 61.6554 26.2919V30.8913H60.8965V25.8078C61.367 25.5907 61.9742 25.4321 62.68 25.4321C63.9626 25.4321 64.6229 26.0916 64.6229 27.2101V30.8913H63.8791V30.883Z" fill="#941914"/>
<path d="M67.8488 30.9916C66.8091 30.9916 65.7617 30.1652 65.7617 28.2035C65.7617 26.2419 66.8091 25.4238 67.8488 25.4238C68.3345 25.4238 68.7671 25.5741 69.0555 25.7911L68.7975 26.4005C68.5774 26.2335 68.2587 26.125 67.9323 26.125C67.2341 26.125 66.5434 26.701 66.5434 28.2035C66.5434 29.7061 67.2493 30.2987 67.9323 30.2987C68.2587 30.2987 68.585 30.1819 68.7975 30.0149L69.0555 30.641C68.7596 30.858 68.3421 30.9916 67.8488 30.9916Z" fill="#941914"/>
<path d="M73.8074 28.0783L70.4832 28.6042C70.5667 29.7478 71.1891 30.3237 72.115 30.3237C72.6007 30.3237 73.1168 30.1985 73.4431 29.9982L73.6784 30.6242C73.3293 30.8413 72.7221 30.9999 72.077 30.9999C70.6274 30.9999 69.7471 29.9648 69.7471 28.2118C69.7471 26.5674 70.5516 25.4321 71.8645 25.4321C73.0637 25.4321 73.8074 26.2919 73.8074 27.7277C73.815 27.8278 73.815 27.9447 73.8074 28.0783ZM71.8645 26.0582C71.0069 26.0582 70.4529 26.8095 70.4377 28.0198L73.094 27.6025C73.0864 26.559 72.6007 26.0582 71.8645 26.0582Z" fill="#941914"/>
<path fill-rule="evenodd" clip-rule="evenodd" d="M8.79862 7.71582H21.4792C22.0263 7.71582 22.4821 8.16167 22.4821 8.70576V21.318C22.4821 21.8621 22.0263 22.3155 21.4792 22.3155H8.79862C8.25158 22.3155 7.80332 21.8621 7.80332 21.318V8.70576C7.79572 8.16167 8.24399 7.71582 8.79862 7.71582Z" fill="#931913"/>
<path fill-rule="evenodd" clip-rule="evenodd" d="M0.919325 7.71582H4.49785C4.9993 7.71582 5.40958 8.12389 5.40958 8.62263V29.2073C5.40958 29.7061 4.9993 30.1141 4.49785 30.1141H0.919325C0.410277 30.1141 0 29.7061 0 29.2073V8.62263C0 8.12389 0.410277 7.71582 0.919325 7.71582Z" fill="#FF7900"/>
<path fill-rule="evenodd" clip-rule="evenodd" d="M25.7638 0H29.3423C29.8514 0 30.2616 0.408067 30.2616 0.914372V21.4915C30.2616 21.9978 29.8514 22.4059 29.3423 22.4059H25.7638C25.2623 22.4059 24.8521 21.9978 24.8521 21.4915V0.914372C24.8521 0.408067 25.2623 0 25.7638 0Z" fill="#FF7900"/>
<path fill-rule="evenodd" clip-rule="evenodd" d="M7.75 29.4111V25.8519C7.75 25.3456 8.16028 24.9375 8.66173 24.9375H29.3579C29.8594 24.9375 30.2697 25.3456 30.2697 25.8519V29.4111C30.2697 29.9099 29.8594 30.3179 29.3579 30.3179H8.66932C8.16787 30.3179 7.75 29.9099 7.75 29.4111Z" fill="#FF7900"/>
<path fill-rule="evenodd" clip-rule="evenodd" d="M0 4.47362V0.914372C0 0.408067 0.410277 0 0.919325 0H21.6079C22.117 0 22.5273 0.408067 22.5273 0.914372V4.47362C22.5273 4.97237 22.117 5.38043 21.6079 5.38043H0.919325C0.410277 5.38799 0 4.97237 0 4.47362Z" fill="#FF7900"/>
<path d="M48.2046 6.68509V20.1386H45.8563L39.5844 11.7633L39.6969 20.1386H36.8535V6.88974C37.1686 6.64719 37.6113 6.49561 38.0689 6.49561C38.8116 6.49561 39.3068 6.8291 39.862 7.57947L45.4737 15.1059L45.3537 6.68509H48.2046Z" fill="#941914"/>
<path d="M59.4732 13.3171C59.4732 10.5122 58.2297 8.8592 56.1128 8.8592C53.9958 8.8592 52.7375 10.5122 52.7375 13.3171C52.7375 16.122 53.9958 17.7825 56.1128 17.7825C58.2371 17.7825 59.4732 16.122 59.4732 13.3171ZM49.6953 13.3171C49.6953 9.02375 52.0861 6.49561 56.135 6.49561C60.169 6.49561 62.5599 9.02375 62.5599 13.3171C62.5599 17.618 60.169 20.1386 56.135 20.1386C52.0861 20.1386 49.6953 17.618 49.6953 13.3171Z" fill="#941914"/>
<path d="M77.088 20.1235L76.2579 11.4092L73.4012 20.1235H70.6791L67.6952 11.2957L66.9698 20.1235H64.2402L65.7135 6.88173C66.1023 6.67732 66.7305 6.48804 67.1717 6.48804C68.2038 6.48804 68.974 6.80602 69.2881 7.73726L72.3692 17.0345L75.5176 6.91202C75.9065 6.64703 76.4225 6.48047 76.916 6.48047C77.9705 6.48047 78.4865 6.85145 78.651 8.17638L80.1317 20.1084H77.088V20.1235Z" fill="#941914"/>
<path d="M89.6757 14.9574L88.0017 9.54868L86.3125 14.9574H89.6757ZM90.4373 17.2754H85.5434L84.6008 20.1313H81.7202L86.5538 6.88219C87.0742 6.62464 87.6095 6.48828 88.1374 6.48828C89.1026 6.48828 89.8265 6.98825 90.2337 8.13211L94.5847 20.1237H91.3875L90.4373 17.2754Z" fill="#941914"/>
<path d="M104.186 13.3171C104.186 10.4823 102.658 8.7844 100.02 8.7844C99.7759 8.7844 99.4013 8.79936 99.0803 8.81432V17.8124C99.4013 17.8349 99.7606 17.8498 100.02 17.8498C102.658 17.8573 104.186 16.1594 104.186 13.3171ZM107.366 13.3171C107.366 17.618 104.637 20.1386 100.036 20.1386C98.9198 20.1386 96.7489 20.0264 96.0151 19.9591V6.6826C96.7337 6.6078 98.5987 6.49561 100.036 6.49561C104.637 6.49561 107.366 9.02375 107.366 13.3171Z" fill="#941914"/>
</svg>
