<svg width="94" height="238" viewBox="0 0 94 238" fill="none" xmlns="http://www.w3.org/2000/svg">
<path style="mix-blend-mode:multiply" d="M47.3416 209.045C62.4799 207.834 71.756 169.404 68.0604 123.209C64.3648 77.0139 49.0969 40.5473 33.9586 41.7583C18.8204 42.9694 9.54421 81.3996 13.2398 127.594C16.9354 173.789 32.2033 210.256 47.3416 209.045Z" fill="url(#paint0_radial)"/>
<path d="M47.477 230.222C63.0399 230.222 75.6562 220.76 75.6562 209.088C75.6562 197.416 63.0399 187.954 47.477 187.954C31.9141 187.954 19.2979 197.416 19.2979 209.088C19.2979 220.76 31.9141 230.222 47.477 230.222Z" stroke="url(#paint1_radial)" stroke-width="13.79" stroke-miterlimit="10"/>
<path d="M35.2495 112.289L37.6528 101.235V58.1009L42.1633 55.094V48.7724L42.2487 43.7608L40.2099 36.7844L42.767 34.9392L41.8672 30.8387L45.176 28.2019L39.1563 17.7743L42.767 15.986L40.2099 13.2809L47.8014 0H53.5819L61.35 15.3823H57.5684L61.35 21.7039L58.2746 25.1095L58.7473 28.2019L58.6391 30.7989L58.7473 38.248L55.2619 46.9728L56.418 49.3761V56.1418L59.1346 61.6205V115.558H35.2495V112.289Z" fill="url(#paint2_linear)"/>
<path opacity="0.65" d="M50.2978 0V115.558H47.0117L47.8033 0H50.2978Z" fill="url(#paint3_linear)"/>
<path opacity="0.65" d="M53.5822 0V115.558H51.8965L52.6824 0H53.5822Z" fill="url(#paint4_linear)"/>
<path d="M56.6818 110.13H36.8914C30.363 110.129 24.0417 112.422 19.0317 116.607C14.0216 120.793 10.6413 126.606 9.48114 133.03L0.443086 182.959C-0.28126 186.972 -0.115911 191.095 0.927456 195.036C1.97082 198.978 3.86677 202.643 6.48146 205.772C9.09614 208.901 12.3658 211.418 16.0596 213.145C19.7535 214.873 23.7814 215.768 27.8591 215.768H65.2471C69.3047 215.768 73.3132 214.881 76.9925 213.17C80.6717 211.459 83.9328 208.965 86.5477 205.863C89.1627 202.76 91.0684 199.124 92.1315 195.208C93.1947 191.292 93.3898 187.191 92.703 183.192L84.1604 133.264C83.0473 126.785 79.6781 120.909 74.6491 116.675C69.6201 112.441 63.2556 110.123 56.6818 110.13Z" fill="#424242"/>
<path d="M67.2113 191.349H25.8196C24.7388 191.35 23.67 191.122 22.6835 190.68C21.697 190.239 20.8152 189.593 20.0961 188.786C19.3769 187.979 18.8366 187.029 18.5107 185.999C18.1848 184.968 18.0808 183.88 18.2053 182.807L22.7614 142.856C22.9766 140.987 23.8714 139.263 25.2754 138.011C26.6794 136.759 28.4947 136.068 30.3757 136.067H63.2874C65.1905 136.066 67.0261 136.773 68.436 138.051C69.8459 139.329 70.729 141.087 70.9131 142.981L74.8256 182.932C74.9304 183.996 74.8116 185.07 74.4769 186.085C74.1421 187.1 73.5987 188.034 72.8817 188.826C72.1647 189.619 71.2898 190.253 70.3133 190.687C69.3367 191.122 68.2801 191.347 67.2113 191.349Z" fill="url(#paint5_radial)"/>
<path d="M0.442957 182.958C-0.753869 189.591 0.493627 196.432 3.95436 202.216C7.4151 207.999 12.8545 212.332 19.2651 214.412C19.043 214.127 9.3785 201.393 15.1818 172.172C21.0477 142.62 27.5913 111.725 27.5913 111.725C22.9598 113.362 18.8438 116.195 15.6611 119.937C12.4784 123.678 10.3423 128.196 9.46962 133.03L0.442957 182.958Z" fill="url(#paint6_radial)"/>
<path d="M27.6961 188.957H66.3371C69.9951 188.957 72.9604 185.991 72.9604 182.333V169.912C72.9604 166.254 69.9951 163.289 66.3371 163.289H27.6961C24.0382 163.289 21.0728 166.254 21.0728 169.912V182.333C21.0728 185.991 24.0382 188.957 27.6961 188.957Z" fill="url(#paint7_radial)"/>
<path d="M30.3086 160.076H63.7215C66.8856 160.076 69.4507 157.511 69.4507 154.347V143.606C69.4507 140.442 66.8856 137.877 63.7215 137.877H30.3086C27.1444 137.877 24.5793 140.442 24.5793 143.606V154.347C24.5793 157.511 27.1444 160.076 30.3086 160.076Z" fill="url(#paint8_radial)"/>
<path d="M43.6427 146.431C43.5507 146.142 43.5046 145.84 43.506 145.537C43.506 144.739 43.8228 143.974 44.3867 143.41C44.9507 142.846 45.7155 142.53 46.513 142.53C47.3105 142.53 48.0753 142.846 48.6393 143.41C49.2032 143.974 49.52 144.739 49.52 145.537C49.5186 145.84 49.4725 146.141 49.3833 146.431H51.2627C51.3201 146.136 51.3487 145.837 51.3481 145.537C51.3481 144.253 50.8381 143.021 49.9303 142.114C49.0224 141.206 47.7912 140.696 46.5073 140.696C45.2234 140.696 43.9922 141.206 43.0843 142.114C42.1765 143.021 41.6665 144.253 41.6665 145.537C41.6688 145.837 41.6973 146.136 41.7519 146.431H43.6427Z" fill="#F9F9F9"/>
<path d="M50.6043 145.538H42.4262C41.9233 145.538 41.4409 145.738 41.0852 146.094C40.7296 146.449 40.5298 146.932 40.5298 147.435V155.613C40.5298 156.116 40.7296 156.598 41.0852 156.954C41.4409 157.309 41.9233 157.509 42.4262 157.509H50.6043C51.1073 157.509 51.5897 157.309 51.9453 156.954C52.301 156.598 52.5008 156.116 52.5008 155.613V147.435C52.5008 146.932 52.301 146.449 51.9453 146.094C51.5897 145.738 51.1073 145.538 50.6043 145.538ZM46.5153 147.622C46.7834 147.622 47.0454 147.702 47.2683 147.851C47.4912 148 47.6649 148.212 47.7675 148.459C47.8701 148.707 47.897 148.979 47.8447 149.242C47.7924 149.505 47.6633 149.747 47.4737 149.936C47.2842 150.126 47.0426 150.255 46.7797 150.307C46.5168 150.36 46.2443 150.333 45.9966 150.23C45.7489 150.128 45.5372 149.954 45.3883 149.731C45.2394 149.508 45.1599 149.246 45.1599 148.978C45.1599 148.618 45.3027 148.274 45.5569 148.019C45.8111 147.765 46.1558 147.622 46.5153 147.622ZM46.5153 155.504C46.1614 155.506 45.8151 155.402 45.5202 155.206C45.2254 155.01 44.9953 154.731 44.8591 154.404C44.7229 154.078 44.6867 153.718 44.755 153.371C44.8234 153.024 44.9932 152.704 45.2431 152.454C45.493 152.203 45.8116 152.032 46.1586 151.963C46.5057 151.893 46.8655 151.928 47.1926 152.064C47.5197 152.199 47.7993 152.428 47.9961 152.722C48.1928 153.016 48.2978 153.362 48.2978 153.716C48.2964 154.189 48.1082 154.642 47.7744 154.977C47.4406 155.312 46.9881 155.501 46.5153 155.504Z" fill="#F9F9F9"/>
<path d="M41.7622 174.405H43.6473C43.5549 174.116 43.5088 173.815 43.5106 173.511C43.5129 172.881 43.7135 172.267 44.084 171.756C44.4544 171.246 44.9759 170.865 45.5748 170.667C46.1736 170.47 46.8194 170.465 47.4209 170.655C48.0224 170.844 48.5492 171.218 48.9266 171.723H51.0053C50.5899 170.678 49.823 169.81 48.8367 169.269C47.8504 168.728 46.7063 168.548 45.6016 168.76C44.4968 168.972 43.5004 169.562 42.784 170.429C42.0677 171.297 41.6761 172.386 41.6768 173.511C41.679 173.811 41.7076 174.11 41.7622 174.405Z" fill="#F9F9F9"/>
<path d="M50.6043 173.512H42.4262C41.9237 173.514 41.4422 173.714 41.0869 174.069C40.7316 174.425 40.5313 174.906 40.5298 175.409V183.592C40.5313 184.094 40.7318 184.575 41.0873 184.93C41.4427 185.284 41.9243 185.483 42.4262 185.483H50.6043C51.1063 185.483 51.5878 185.284 51.9433 184.93C52.2988 184.575 52.4993 184.094 52.5008 183.592V175.409C52.4993 174.906 52.299 174.425 51.9437 174.069C51.5884 173.714 51.1068 173.514 50.6043 173.512ZM46.5153 175.597C46.7834 175.597 47.0454 175.676 47.2683 175.825C47.4912 175.974 47.6649 176.186 47.7675 176.433C47.8701 176.681 47.897 176.954 47.8447 177.216C47.7924 177.479 47.6633 177.721 47.4737 177.91C47.2842 178.1 47.0426 178.229 46.7797 178.281C46.5168 178.334 46.2443 178.307 45.9966 178.204C45.7489 178.102 45.5372 177.928 45.3883 177.705C45.2394 177.482 45.1599 177.22 45.1599 176.952C45.1614 176.593 45.3047 176.249 45.5585 175.995C45.8124 175.741 46.1563 175.598 46.5153 175.597ZM46.5153 183.479C46.1611 183.48 45.8146 183.376 45.5197 183.18C45.2247 182.983 44.9946 182.704 44.8586 182.377C44.7225 182.05 44.6866 181.69 44.7554 181.343C44.8243 180.995 44.9947 180.676 45.2451 180.426C45.4956 180.175 45.8147 180.005 46.1621 179.936C46.5095 179.867 46.8696 179.903 47.1966 180.039C47.5236 180.175 47.8028 180.405 47.9988 180.7C48.1949 180.995 48.299 181.342 48.2978 181.696C48.2963 182.168 48.1081 182.621 47.7741 182.955C47.4401 183.289 46.9876 183.477 46.5153 183.479Z" fill="#F9F9F9"/>
<defs>
<radialGradient id="paint0_radial" cx="0" cy="0" r="1" gradientUnits="userSpaceOnUse" gradientTransform="translate(40.0991 125.501) rotate(175.426) scale(27.3454 83.9896)">
<stop/>
<stop offset="1" stop-color="white" stop-opacity="0"/>
</radialGradient>
<radialGradient id="paint1_radial" cx="0" cy="0" r="1" gradientUnits="userSpaceOnUse" gradientTransform="translate(47.477 209.088) rotate(180) scale(28.7999)">
<stop stop-color="#494748"/>
<stop offset="0.21" stop-color="#403F40"/>
<stop offset="0.55" stop-color="#292828"/>
<stop offset="0.97" stop-color="#030303"/>
<stop offset="1"/>
</radialGradient>
<linearGradient id="paint2_linear" x1="48.2969" y1="216.856" x2="48.2969" y2="-103.77" gradientUnits="userSpaceOnUse">
<stop stop-color="white"/>
<stop offset="0.12" stop-color="#FDFDFD"/>
<stop offset="0.2" stop-color="#F4F4F4"/>
<stop offset="0.26" stop-color="#E6E6E6"/>
<stop offset="0.31" stop-color="#D2D2D3"/>
<stop offset="0.36" stop-color="#B8B8B9"/>
<stop offset="0.4" stop-color="#99999A"/>
<stop offset="0.43" stop-color="#7E7E80"/>
<stop offset="0.44" stop-color="#8F8F92"/>
<stop offset="0.45" stop-color="#A1A1A6"/>
<stop offset="0.46" stop-color="#AEAEB3"/>
<stop offset="0.48" stop-color="#B6B6BC"/>
<stop offset="0.51" stop-color="#B7B7BD"/>
<stop offset="0.53" stop-color="#9C9CA1"/>
<stop offset="0.55" stop-color="#86868A"/>
<stop offset="0.57" stop-color="#77777A"/>
<stop offset="0.6" stop-color="#6E6E71"/>
<stop offset="0.63" stop-color="#6B6B6E"/>
<stop offset="0.64" stop-color="#747476"/>
<stop offset="0.7" stop-color="#8E8E90"/>
<stop offset="0.75" stop-color="#A1A1A2"/>
<stop offset="0.81" stop-color="#ACACAC"/>
<stop offset="0.87" stop-color="#B0B0B0"/>
<stop offset="0.88" stop-color="#B6B6B6"/>
<stop offset="0.9" stop-color="#C1C1C1"/>
<stop offset="0.93" stop-color="#C8C8C8"/>
<stop offset="1" stop-color="#CACACA"/>
</linearGradient>
<linearGradient id="paint3_linear" x1="-1.43617" y1="10.1315" x2="82.1502" y2="89.6289" gradientUnits="userSpaceOnUse">
<stop stop-color="white"/>
<stop offset="0.14" stop-color="#FCFCFC"/>
<stop offset="0.25" stop-color="#F3F3F3"/>
<stop offset="0.34" stop-color="#E3E3E4"/>
<stop offset="0.42" stop-color="#CDCDCE"/>
<stop offset="0.5" stop-color="#B1B1B2"/>
<stop offset="0.57" stop-color="#8E8E90"/>
<stop offset="0.63" stop-color="#6B6B6E"/>
<stop offset="0.66" stop-color="#848486"/>
<stop offset="0.7" stop-color="#989899"/>
<stop offset="0.74" stop-color="#A5A5A6"/>
<stop offset="0.78" stop-color="#AEAEAE"/>
<stop offset="0.87" stop-color="#B0B0B0"/>
<stop offset="0.88" stop-color="#B6B6B6"/>
<stop offset="0.9" stop-color="#C1C1C1"/>
<stop offset="0.93" stop-color="#C8C8C8"/>
<stop offset="1" stop-color="#CACACA"/>
</linearGradient>
<linearGradient id="paint4_linear" x1="-153.948" y1="7659.21" x2="-618.358" y2="7652.77" gradientUnits="userSpaceOnUse">
<stop stop-color="white"/>
<stop offset="0.14" stop-color="#FCFCFC"/>
<stop offset="0.25" stop-color="#F3F3F3"/>
<stop offset="0.34" stop-color="#E3E3E4"/>
<stop offset="0.42" stop-color="#CDCDCE"/>
<stop offset="0.5" stop-color="#B1B1B2"/>
<stop offset="0.57" stop-color="#8E8E90"/>
<stop offset="0.63" stop-color="#6B6B6E"/>
<stop offset="0.66" stop-color="#848486"/>
<stop offset="0.7" stop-color="#989899"/>
<stop offset="0.74" stop-color="#A5A5A6"/>
<stop offset="0.78" stop-color="#AEAEAE"/>
<stop offset="0.87" stop-color="#B0B0B0"/>
<stop offset="0.88" stop-color="#B6B6B6"/>
<stop offset="0.9" stop-color="#C1C1C1"/>
<stop offset="0.93" stop-color="#C8C8C8"/>
<stop offset="1" stop-color="#CACACA"/>
</linearGradient>
<radialGradient id="paint5_radial" cx="0" cy="0" r="1" gradientUnits="userSpaceOnUse" gradientTransform="translate(10551.3 7882.81) rotate(180) scale(9370.47 9134.79)">
<stop stop-color="#454545"/>
<stop offset="0.21" stop-color="#403F40"/>
<stop offset="0.55" stop-color="#292828"/>
<stop offset="0.97" stop-color="#030303"/>
<stop offset="1"/>
</radialGradient>
<radialGradient id="paint6_radial" cx="0" cy="0" r="1" gradientUnits="userSpaceOnUse" gradientTransform="translate(3513.18 20842.8) rotate(180) scale(1913.46 7121.38)">
<stop stop-color="#424242"/>
<stop offset="0.21" stop-color="#424242"/>
<stop offset="0.55" stop-color="#424242"/>
<stop offset="0.97" stop-color="#030303"/>
<stop offset="1" stop-color="#424242"/>
</radialGradient>
<radialGradient id="paint7_radial" cx="0" cy="0" r="1" gradientUnits="userSpaceOnUse" gradientTransform="translate(11261.8 6229.39) rotate(180) scale(5053.34 2499.77)">
<stop stop-color="#494748"/>
<stop offset="0.21" stop-color="#403F40"/>
<stop offset="0.55" stop-color="#292828"/>
<stop offset="0.97" stop-color="#030303"/>
<stop offset="1"/>
</radialGradient>
<radialGradient id="paint8_radial" cx="0" cy="0" r="1" gradientUnits="userSpaceOnUse" gradientTransform="translate(9578.35 4264.81) rotate(180) scale(3779.07 1869.63)">
<stop stop-color="#494748"/>
<stop offset="0.21" stop-color="#403F40"/>
<stop offset="0.55" stop-color="#292828"/>
<stop offset="0.97" stop-color="#030303"/>
<stop offset="1"/>
</radialGradient>
</defs>
</svg>
