<svg width="99" height="70" viewBox="0 0 99 70" fill="none" xmlns="http://www.w3.org/2000/svg">
<path d="M97.4905 21.8014C97.011 21.2164 96.2955 20.875 95.5448 20.875H86.0019C83.6469 14.6637 80.5789 8.5779 77.0917 6.28068C65.0281 -1.65541 33.0302 -1.65541 20.9667 6.28068C17.4769 8.58041 14.4215 14.6737 12.0539 20.875H2.51106C1.75285 20.875 1.03983 21.2164 0.565322 21.8014C0.0883029 22.3838 -0.102505 23.1546 0.0531541 23.8952L1.46664 30.7442C1.70766 31.9117 2.73701 32.7452 3.92454 32.7452H6.7515C4.02245 35.8935 2.69935 39.8578 2.68178 43.8246C2.6642 48.7253 4.52458 53.1541 7.92647 56.2873C7.96413 56.32 8.00179 56.3426 8.03694 56.3752V65.9583C8.03694 68.0346 9.72408 69.7242 11.8029 69.7242H20.6051C22.6839 69.7242 24.3711 68.0346 24.3711 65.9583V62.107H73.6823V65.9583C73.6823 68.0346 75.3694 69.7242 77.4482 69.7242H86.2505C88.3242 69.7242 90.0164 68.0346 90.0164 65.9583V56.5635C93.6267 53.257 95.3515 48.7078 95.3741 44.166C95.3891 40.0637 94.0058 35.9538 91.116 32.7402H94.1313C95.3238 32.7402 96.3532 31.9066 96.5892 30.7367L98.0052 23.8902C98.1508 23.1546 97.9675 22.3889 97.4905 21.8014ZM25.1017 12.5698C34.7174 6.24051 63.336 6.24051 72.9466 12.5698C74.8146 13.795 77.2172 18.7485 79.419 24.8141H18.6343C20.8311 18.751 23.2338 13.8 25.1017 12.5698ZM13.839 44.7686C13.839 40.6763 17.158 37.3622 21.2479 37.3622C25.3427 37.3622 28.6567 40.6763 28.6567 44.7686C28.6567 48.8609 25.3427 52.1774 21.2479 52.1774C17.158 52.1774 13.839 48.8609 13.839 44.7686ZM76.9034 52.1774C72.8136 52.1774 69.4945 48.8609 69.4945 44.7686C69.4945 40.6763 72.8136 37.3622 76.9034 37.3622C80.9982 37.3622 84.3122 40.6763 84.3122 44.7686C84.3122 48.8609 80.9932 52.1774 76.9034 52.1774Z" fill="white"/>
</svg>
