<svg width="84" height="24" viewBox="0 0 84 24" fill="none" xmlns="http://www.w3.org/2000/svg">
<path d="M28.8077 18.927C28.6079 18.927 28.4375 18.7525 28.4375 18.5328C28.4375 18.3195 28.6079 18.1321 28.8077 18.1321C29.0074 18.1321 29.1778 18.3195 29.1778 18.5328C29.1778 18.7525 29.0133 18.927 28.8077 18.927ZM28.5198 23.9096V19.7671H29.1014V23.9096H28.5198Z" fill="#941914"/>
<path d="M32.4566 23.9095V21.1112C32.4566 20.5554 32.1511 20.2065 31.54 20.2065C31.211 20.2065 30.9172 20.2775 30.735 20.3551V23.9159H30.1475V19.9803C30.5118 19.8122 30.9818 19.6895 31.5282 19.6895C32.5212 19.6895 33.0324 20.2 33.0324 21.066V23.9159H32.4566V23.9095Z" fill="#941914"/>
<path d="M34.9596 23.9935C34.5542 23.9935 34.1135 23.8642 33.8433 23.7027L34.0548 23.2115C34.2546 23.3408 34.6541 23.47 34.9538 23.47C35.4356 23.47 35.7587 23.2115 35.7587 22.8044C35.7587 22.3649 35.4356 22.1969 34.9949 22.0224C34.4661 21.8092 33.9373 21.5442 33.9373 20.801C33.9373 20.1548 34.3897 19.6895 35.1888 19.6895C35.6177 19.6895 35.9879 19.8122 36.2347 19.9803L36.0349 20.4326C35.8586 20.3099 35.5413 20.1871 35.2475 20.1871C34.7951 20.1871 34.5366 20.4585 34.5366 20.801C34.5366 21.2405 34.8421 21.3956 35.2652 21.5636C35.8234 21.7962 36.3698 22.0353 36.3698 22.8108C36.3639 23.5153 35.8469 23.9935 34.9596 23.9935Z" fill="#941914"/>
<path d="M38.673 23.9936C37.7387 23.9936 37.2217 23.5412 37.2217 22.5395V19.7671H37.8092V22.5524C37.8092 23.1664 38.0972 23.4572 38.673 23.4572C39.0138 23.4572 39.3252 23.3861 39.4721 23.3215V19.7736H40.0538V23.7092C39.7659 23.8643 39.2253 23.9936 38.673 23.9936Z" fill="#941914"/>
<path d="M42.7032 20.2518C42.6034 20.226 42.4859 20.2195 42.3683 20.2195C42.1098 20.2195 41.8278 20.2647 41.6574 20.3487V23.9096H41.0698V19.9739C41.4106 19.8059 41.9277 19.6831 42.4447 19.6831C42.5857 19.6831 42.7091 19.696 42.8149 19.7154L42.7032 20.2518Z" fill="#941914"/>
<path d="M44.8305 23.9936C43.7964 23.9936 43.2793 23.5089 43.2793 22.727C43.2793 21.5443 44.4368 21.3634 45.5767 21.2987V20.9821C45.5767 20.3681 45.2065 20.1743 44.6836 20.1743C44.3369 20.1743 43.9021 20.297 43.6553 20.4263L43.5026 19.9739C43.7905 19.8253 44.2664 19.6831 44.7306 19.6831C45.5767 19.6831 46.129 20.0515 46.129 21.0338V23.7028C45.8646 23.8644 45.3241 23.9936 44.8305 23.9936ZM45.5767 21.7447C44.7365 21.7964 43.8316 21.8545 43.8316 22.714C43.8316 23.1987 44.1607 23.5154 44.8187 23.5154C45.1066 23.5154 45.4474 23.4508 45.5826 23.3861V21.7447H45.5767Z" fill="#941914"/>
<path d="M49.4547 23.9095V21.1112C49.4547 20.5554 49.1491 20.2065 48.5381 20.2065C48.209 20.2065 47.9152 20.2775 47.7331 20.3551V23.9159H47.1455V19.9803C47.5098 19.8122 47.9799 19.6895 48.5263 19.6895C49.5193 19.6895 50.0305 20.2 50.0305 21.066V23.9159H49.4547V23.9095Z" fill="#941914"/>
<path d="M52.5279 23.9936C51.723 23.9936 50.9121 23.3538 50.9121 21.8351C50.9121 20.3164 51.723 19.6831 52.5279 19.6831C52.904 19.6831 53.2389 19.7994 53.4622 19.9675L53.2624 20.4392C53.092 20.31 52.8452 20.226 52.5926 20.226C52.052 20.226 51.5173 20.6719 51.5173 21.8351C51.5173 22.9984 52.0637 23.4572 52.5926 23.4572C52.8452 23.4572 53.0979 23.3667 53.2624 23.2375L53.4622 23.7222C53.233 23.8902 52.9098 23.9936 52.5279 23.9936Z" fill="#941914"/>
<path d="M57.1406 21.7381L54.567 22.1452C54.6316 23.0306 55.1135 23.4765 55.8303 23.4765C56.2063 23.4765 56.6059 23.3796 56.8585 23.2245L57.0407 23.7091C56.7704 23.8772 56.3004 24 55.8009 24C54.6787 24 53.9971 23.1986 53.9971 21.8415C53.9971 20.5684 54.6199 19.6895 55.6364 19.6895C56.5648 19.6895 57.1406 20.3551 57.1406 21.4666C57.1465 21.5442 57.1465 21.6347 57.1406 21.7381ZM55.6364 20.1741C54.9724 20.1741 54.5435 20.7558 54.5318 21.6928L56.5883 21.3697C56.5824 20.5619 56.2063 20.1741 55.6364 20.1741Z" fill="#941914"/>
<path fill-rule="evenodd" clip-rule="evenodd" d="M6.81165 5.97339H16.6289C17.0524 5.97339 17.4053 6.31856 17.4053 6.73979V16.5041C17.4053 16.9254 17.0524 17.2764 16.6289 17.2764H6.81165C6.38813 17.2764 6.04109 16.9254 6.04109 16.5041V6.73979C6.03521 6.31856 6.38225 5.97339 6.81165 5.97339Z" fill="#931913"/>
<path fill-rule="evenodd" clip-rule="evenodd" d="M0.711735 5.97339H3.48221C3.87043 5.97339 4.18806 6.28931 4.18806 6.67544V22.612C4.18806 22.9981 3.87043 23.314 3.48221 23.314H0.711735C0.317634 23.314 0 22.9981 0 22.612V6.67544C0 6.28931 0.317634 5.97339 0.711735 5.97339Z" fill="#FF7900"/>
<path fill-rule="evenodd" clip-rule="evenodd" d="M19.9461 0H22.7166C23.1107 0 23.4283 0.315923 23.4283 0.707901V16.6386C23.4283 17.0306 23.1107 17.3465 22.7166 17.3465H19.9461C19.5579 17.3465 19.2402 17.0306 19.2402 16.6386V0.707901C19.2402 0.315923 19.5579 0 19.9461 0Z" fill="#FF7900"/>
<path fill-rule="evenodd" clip-rule="evenodd" d="M6 22.7698V20.0143C6 19.6223 6.31763 19.3064 6.70585 19.3064H22.7287C23.1169 19.3064 23.4346 19.6223 23.4346 20.0143V22.7698C23.4346 23.156 23.1169 23.4719 22.7287 23.4719H6.71174C6.32352 23.4719 6 23.156 6 22.7698Z" fill="#FF7900"/>
<path fill-rule="evenodd" clip-rule="evenodd" d="M0 3.46345V0.707901C0 0.315923 0.317634 0 0.711735 0H16.7287C17.1228 0 17.4405 0.315923 17.4405 0.707901V3.46345C17.4405 3.84957 17.1228 4.1655 16.7287 4.1655H0.711735C0.317634 4.17135 0 3.84957 0 3.46345Z" fill="#FF7900"/>
<path d="M37.3192 5.17551V15.5912H35.5012L30.6455 9.10705L30.7326 15.5912H28.5312V5.33394C28.7752 5.14617 29.1179 5.02881 29.4722 5.02881C30.0472 5.02881 30.4306 5.287 30.8604 5.86793L35.205 11.6948L35.112 5.17551H37.3192Z" fill="#941914"/>
<path d="M46.0436 10.31C46.0436 8.13845 45.0809 6.85869 43.442 6.85869C41.8031 6.85869 40.8289 8.13845 40.8289 10.31C40.8289 12.4815 41.8031 13.7671 43.442 13.7671C45.0866 13.7671 46.0436 12.4815 46.0436 10.31ZM38.4736 10.31C38.4736 6.98609 40.3246 5.02881 43.4592 5.02881C46.5823 5.02881 48.4333 6.98609 48.4333 10.31C48.4333 13.6397 46.5823 15.5912 43.4592 15.5912C40.3246 15.5912 38.4736 13.6397 38.4736 10.31Z" fill="#941914"/>
<path d="M59.6806 15.5794L59.0379 8.8329L56.8262 15.5794H54.7188L52.4087 8.74498L51.8471 15.5794H49.7339L50.8745 5.32775C51.1755 5.16949 51.6618 5.02295 52.0034 5.02295C52.8024 5.02295 53.3988 5.26913 53.6419 5.99009L56.0273 13.188L58.4647 5.35119C58.7658 5.14604 59.1653 5.01709 59.5474 5.01709C60.3637 5.01709 60.7632 5.3043 60.8906 6.33006L62.037 15.5677H59.6806V15.5794Z" fill="#941914"/>
<path d="M69.4262 11.5797L68.1301 7.39229L66.8224 11.5797H69.4262ZM70.0158 13.3743H66.227L65.4972 15.5853H63.2671L67.0093 5.32791C67.4121 5.12851 67.8266 5.02295 68.2352 5.02295C68.9825 5.02295 69.5429 5.41002 69.8582 6.29559L73.2267 15.5794H70.7514L70.0158 13.3743Z" fill="#941914"/>
<path d="M80.6601 10.31C80.6601 8.11528 79.4765 6.80078 77.4349 6.80078C77.2455 6.80078 76.9556 6.81236 76.707 6.82394V13.7902C76.9556 13.8076 77.2337 13.8192 77.4349 13.8192C79.4765 13.825 80.6601 12.5105 80.6601 10.31ZM83.1219 10.31C83.1219 13.6397 81.0092 15.5912 77.4467 15.5912C76.5827 15.5912 74.9021 15.5043 74.334 15.4522V5.17358C74.8903 5.11567 76.3342 5.02881 77.4467 5.02881C81.0092 5.02881 83.1219 6.98609 83.1219 10.31Z" fill="#941914"/>
</svg>
