<svg width="14" height="13" viewBox="0 0 14 13" fill="none" xmlns="http://www.w3.org/2000/svg">
<path d="M8.70068 1.00077L12.001 1L12.0002 4.11231" stroke="#696160" stroke-width="2" stroke-linecap="round" stroke-linejoin="round"/>
<path fill-rule="evenodd" clip-rule="evenodd" d="M1.22867 1.40599C1.24973 1.29696 1.34254 1.21534 1.45512 1.20685L4.17603 1.00146C4.4406 0.981492 4.67496 1.16815 4.7099 1.42668L5.0335 3.82047C5.05399 3.97211 5.00147 4.12448 4.89142 4.23264L3.82658 5.27922C3.63134 5.47111 3.63134 5.78224 3.82658 5.97413L7.13307 9.22392C7.32832 9.41582 7.64486 9.41582 7.84011 9.22392L8.9191 8.16343C9.02106 8.06322 9.16207 8.01116 9.30593 8.0206L11.5343 8.16688C11.7989 8.18424 12.0036 8.40158 12.0009 8.66217L11.9711 11.5405C11.9699 11.6579 11.8844 11.758 11.767 11.7795C8.83889 12.3172 5.69167 11.9641 3.36662 9.67894C1.03796 7.39021 0.672396 4.28548 1.22867 1.40599Z" stroke="#696160" stroke-width="2" stroke-linecap="round" stroke-linejoin="round"/>
<path d="M12.001 1L8.70068 4.30029" stroke="#696160" stroke-width="2" stroke-linecap="round" stroke-linejoin="round"/>
</svg>
