<svg width="14" height="14" viewBox="0 0 14 14" fill="none" xmlns="http://www.w3.org/2000/svg">
<path fill-rule="evenodd" clip-rule="evenodd" d="M7.00019 0C9.37184 0 11.2729 2.05951 11.2729 4.57576C11.2729 6.04906 10.6212 7.36577 9.60485 8.20418C11.9986 8.87281 13.4871 10.5681 13.9893 13.2464C14.0581 13.6135 13.7984 13.9546 13.4373 13.9958L13.3638 14H0.636557C0.238106 14 -0.062337 13.638 0.011093 13.2464C0.513275 10.5681 2.00175 8.87281 4.39542 8.20406C3.37921 7.36577 2.72747 6.04906 2.72747 4.57576C2.72747 2.05951 4.62855 0 7.00019 0ZM7.00018 9.15156C4.08051 9.15156 2.29942 10.2282 1.53141 12.4489L1.47571 12.6176L1.44218 12.7273H12.5575L12.5247 12.6176C11.8243 10.3941 10.1617 9.26215 7.42006 9.15928L7.20703 9.15339L7.00018 9.15156ZM4.00019 4.57574C4.00019 2.74066 5.35521 1.27271 7.00019 1.27271C8.64516 1.27271 10.0002 2.74066 10.0002 4.57574C10.0002 6.41083 8.64516 7.87877 7.00019 7.87877C5.35521 7.87877 4.00019 6.41083 4.00019 4.57574Z" fill="#291F1E"/>
</svg>
