<svg width="16" height="16" viewBox="0 0 16 16" fill="none" xmlns="http://www.w3.org/2000/svg">
<path d="M6.97119 6.42529V9.34593L9.66325 7.89831L6.97119 6.42529Z" fill="#931913"/>
<path d="M11.9873 0H4C1.80317 0 0 1.80317 0 4.0127V12C0 14.1968 1.80317 16 4 16H11.9873C14.1968 16 16 14.1968 16 11.9873V4.0127C16 1.80317 14.1968 0 11.9873 0ZM12.9524 8.39365C12.9524 9.23175 12.8762 10.0825 12.8762 10.0825C12.8762 10.0825 12.7873 10.7937 12.4952 11.1111C12.1143 11.5302 11.6952 11.5302 11.5048 11.5556C10.1079 11.6571 8.0127 11.6698 8.0127 11.6698C8.0127 11.6698 5.40952 11.6317 4.60952 11.5556C4.39365 11.5175 3.88571 11.5302 3.50476 11.1111C3.2 10.7937 3.12381 10.0825 3.12381 10.0825C3.12381 10.0825 3.04762 9.23175 3.04762 8.39365V7.60635C3.04762 6.76825 3.12381 5.91746 3.12381 5.91746C3.12381 5.91746 3.2127 5.20635 3.50476 4.88889C3.88571 4.46984 4.30476 4.45714 4.49524 4.43175C5.90476 4.33016 8 4.31746 8 4.31746C8 4.31746 10.0952 4.33016 11.4921 4.43175C11.6825 4.45714 12.1143 4.46984 12.4952 4.87619C12.8 5.19365 12.8762 5.91746 12.8762 5.91746C12.8762 5.91746 12.9524 6.76825 12.9524 7.60635V8.39365Z" fill="#931913"/>
</svg>
